<mxfile host="app.diagrams.net" modified="2023-05-30T09:03:11.172Z" agent="Mozilla/5.0 (Windows NT 10.0; Win64; x64) AppleWebKit/537.36 (KHTML, like Gecko) Chrome/113.0.0.0 Safari/537.36" etag="ODJSMFdf4tE0_sORTbLX" version="21.3.2" type="github">
  <diagram name="第 1 页" id="pkMejbtIWkEOt5brRMgt">
    <mxGraphModel dx="1434" dy="708" grid="1" gridSize="10" guides="1" tooltips="1" connect="1" arrows="1" fold="1" page="1" pageScale="1" pageWidth="827" pageHeight="1169" math="0" shadow="0">
      <root>
        <mxCell id="0" />
        <mxCell id="1" parent="0" />
        <mxCell id="YWmB037ohMevHC9dHdkx-1" value="" style="rounded=0;whiteSpace=wrap;html=1;fillColor=none;" vertex="1" parent="1">
          <mxGeometry x="220" y="190" width="330" height="70" as="geometry" />
        </mxCell>
        <mxCell id="YWmB037ohMevHC9dHdkx-2" value="应用层" style="text;html=1;strokeColor=none;fillColor=none;align=center;verticalAlign=middle;whiteSpace=wrap;rounded=0;fontStyle=1;fontSize=14;" vertex="1" parent="1">
          <mxGeometry x="250" y="210" width="60" height="30" as="geometry" />
        </mxCell>
        <mxCell id="YWmB037ohMevHC9dHdkx-3" value="地图导航、人车互联、智慧交通" style="rounded=1;whiteSpace=wrap;html=1;fillColor=none;" vertex="1" parent="1">
          <mxGeometry x="340" y="200" width="200" height="50" as="geometry" />
        </mxCell>
        <mxCell id="YWmB037ohMevHC9dHdkx-4" value="" style="rounded=0;whiteSpace=wrap;html=1;fillColor=none;" vertex="1" parent="1">
          <mxGeometry x="220" y="280" width="330" height="70" as="geometry" />
        </mxCell>
        <mxCell id="YWmB037ohMevHC9dHdkx-5" value="网络传输层" style="text;html=1;strokeColor=none;fillColor=none;align=center;verticalAlign=middle;whiteSpace=wrap;rounded=0;fontStyle=1;fontSize=14;" vertex="1" parent="1">
          <mxGeometry x="240" y="300" width="80" height="30" as="geometry" />
        </mxCell>
        <mxCell id="YWmB037ohMevHC9dHdkx-6" value="网络服务器、路由器" style="rounded=1;whiteSpace=wrap;html=1;fillColor=none;" vertex="1" parent="1">
          <mxGeometry x="340" y="290" width="200" height="50" as="geometry" />
        </mxCell>
        <mxCell id="YWmB037ohMevHC9dHdkx-10" value="" style="rounded=0;whiteSpace=wrap;html=1;fillColor=none;" vertex="1" parent="1">
          <mxGeometry x="220" y="370" width="330" height="70" as="geometry" />
        </mxCell>
        <mxCell id="YWmB037ohMevHC9dHdkx-11" value="数据采集层" style="text;html=1;strokeColor=none;fillColor=none;align=center;verticalAlign=middle;whiteSpace=wrap;rounded=0;fontStyle=1;fontSize=14;" vertex="1" parent="1">
          <mxGeometry x="240" y="390" width="80" height="30" as="geometry" />
        </mxCell>
        <mxCell id="YWmB037ohMevHC9dHdkx-12" value="传感器、摄像探头、RFID" style="rounded=1;whiteSpace=wrap;html=1;fillColor=none;" vertex="1" parent="1">
          <mxGeometry x="340" y="380" width="200" height="50" as="geometry" />
        </mxCell>
      </root>
    </mxGraphModel>
  </diagram>
</mxfile>
